PathFileType	4	(X/Y/Z)	pose_F01_0-95.trc
DataRate	CameraRate	NumFrames	NumMarkers	Units	OrigDataRate	OrigDataStartFrame	OrigNumFrames
30	30	10	21	m	30	0	95
Frame#	Time	CHip			RHip			RKnee			RAnkle			RBigToe			RSmallToe			RHeel			LHip			LKnee			LAnkle			LBigToe			LSmallToe			LHeel			Neck			Nose			RShoulder			RElbow			RWrist			LShoulder			LElbow			LWrist			
		X1	Y1	Z1	X2	Y2	Z2	X3	Y3	Z3	X4	Y4	Z4	X5	Y5	Z5	X6	Y6	Z6	X7	Y7	Z7	X8	Y8	Z8	X9	Y9	Z9	X10	Y10	Z10	X11	Y11	Z11	X12	Y12	Z12	X13	Y13	Z13	X14	Y14	Z14	X15	Y15	Z15	X16	Y16	Z16	X17	Y17	Z17	X18	Y18	Z18	X19	Y19	Z19	X20	Y20	Z20	X21	Y21	Z21	
0	0.0	-0.2798440458537961	1.8362544312669054	-0.5259660355337732	-0.29188603747864095	1.8251639067432248	-0.4625115068140923	-0.2955272833046523	1.6995836670105637	-0.4677834462047605	-0.30982739501570045	1.6231848867688752	-0.4760906164148492	-0.3179318790989927	1.61906448484189	-0.4849062045933865	-0.31378184120346925	1.5944462394995749	-0.4312923517238962	-0.31405608951646835	1.6192962823516717	-0.49379753601222637	-0.26619488088261484	1.8265801490643525	-0.582533688237051	-0.25506005512243024	1.6892632147229856	-0.5366995021492852	-0.2736298065109827	1.604187911592623	-0.5799251259139067							-0.2789925859918904	1.5950579503936537	-0.5865582203096451	-0.28701419630236097	1.992820903885105	-0.5731804730248566	-0.27467111376317105	2.038615737017967	-0.5546037279728142	-0.3254422148995707	1.9868496444358692	-0.49187416078884794	-0.32183314710587796	1.906318896815572	-0.45864594121114555	-0.2734021071511121	1.9070415449743379	-0.4767861136536666	-0.2633442985246892	1.996702060809438	-0.6601373390746552	-1.307966886029906	1.8371849696115543	0.37950295930805816	-0.2643271406315048	1.9062575645922948	-0.5640751032043059
1	0.03333333333333333	-0.28083845220898884	1.836511451351192	-0.5291117278263735	-0.29306252208530365	1.8267110981600605	-0.46584007431884095	-0.2955272833046523	1.6995836670105637	-0.4677834462047605	-0.30982739501570045	1.6231848867688752	-0.4760906164148492	-0.3179318790989927	1.61906448484189	-0.4849062045933865	-0.31378184120346925	1.5944462394995749	-0.4312923517238962	-0.31405608951646835	1.6192962823516717	-0.49379753601222637	-0.2672414582153426	1.8283922815906493	-0.5857210180661206	-0.25506005512243024	1.6892632147229856	-0.5366995021492852	-0.2736298065109827	1.604187911592623	-0.5799251259139067							-0.2789925859918904	1.5950579503936537	-0.5865582203096451	-0.2870124793718747	1.992768833270601	-0.5731375692413233	-0.27460766569022727	2.0411362440904135	-0.55491434985936	-0.3225432407786882	1.9868385298330615	-0.490869274956868	-0.32156852585981205	1.908499304929071	-0.4583119206703796	-0.2752704400840679	1.907180193120248	-0.47436583180041947	-0.2633618258458714	1.9966807660517343	-0.6600679249608431	-1.305859473589563	1.8351769648272358	0.3769058388841952	-0.26407528880249825	1.9044639827307983	-0.5638090481495092
2	0.06666666666666667	-0.2818328585641816	1.8367684714354786	-0.5322574201189738	-0.29423900669196634	1.8282582895768962	-0.4691686418235896	-0.2955272833046523	1.6995836670105637	-0.4677834462047605	-0.30982739501570045	1.6231848867688752	-0.4760906164148492	-0.3179318790989927	1.61906448484189	-0.4849062045933865	-0.31378184120346925	1.5944462394995749	-0.4312923517238962	-0.31405608951646835	1.6192962823516717	-0.49379753601222637	-0.2682880355480704	1.830204414116946	-0.5889083478951903	-0.25506005512243024	1.6892632147229856	-0.5366995021492852	-0.2736298065109827	1.604187911592623	-0.5799251259139067							-0.2789925859918904	1.5950579503936537	-0.5865582203096451	-0.2870107624413884	1.992716762656097	-0.57309466545779	-0.2745442176172835	2.04365675116286	-0.5552249717459057	-0.31964426665780565	1.9868274152302539	-0.48986438912488806	-0.32130390461374614	1.9106797130425701	-0.4579779001296137	-0.2771387730170238	1.907318841266158	-0.47194554994717236	-0.26337935316705363	1.9966594712940307	-0.659998510847031	-1.30375206114922	1.8331689600429173	0.37430871846033226	-0.2638234369734917	1.9026704008693018	-0.5635429930947125
3	0.1	-0.2828272649193744	1.8370254915197652	-0.5354031124115741	-0.29541549129862904	1.8298054809937319	-0.4724972093283382	-0.2955272833046523	1.6995836670105637	-0.4677834462047605	-0.30982739501570045	1.6231848867688752	-0.4760906164148492	-0.3179318790989927	1.61906448484189	-0.4849062045933865	-0.31378184120346925	1.5944462394995749	-0.4312923517238962	-0.31405608951646835	1.6192962823516717	-0.49379753601222637	-0.2693346128807982	1.8320165466432428	-0.59209567772426	-0.25506005512243024	1.6892632147229856	-0.5366995021492852	-0.2736298065109827	1.604187911592623	-0.5799251259139067							-0.2789925859918904	1.5950579503936537	-0.5865582203096451	-0.2870090455109021	1.9926646920415931	-0.5730517616742566	-0.2744807695443397	2.046177258235306	-0.5555355936324514	-0.31674529253692313	1.9868163006274462	-0.4888595032929081	-0.32103928336768023	1.9128601211560692	-0.4576438795888478	-0.27900710594997963	1.907457489412068	-0.46952526809392525	-0.26339688048823584	1.996638176536327	-0.6599290967332189	-1.3016446487088769	1.8311609552585988	0.3717115980364693	-0.26357158514448514	1.9008768190078054	-0.5632769380399157
4	0.13333333333333333	-0.28382167127456714	1.8372825116040519	-0.5385488047041744	-0.29659197590529174	1.8313526724105675	-0.47582577683308686	-0.2955272833046523	1.6995836670105637	-0.4677834462047605	-0.30982739501570045	1.6231848867688752	-0.4760906164148492	-0.3179318790989927	1.61906448484189	-0.4849062045933865	-0.31378184120346925	1.5944462394995749	-0.4312923517238962	-0.31405608951646835	1.6192962823516717	-0.49379753601222637	-0.27038119021352597	1.8338286791695395	-0.5952830075533296	-0.25506005512243024	1.6892632147229856	-0.5366995021492852	-0.2736298065109827	1.604187911592623	-0.5799251259139067							-0.2789925859918904	1.5950579503936537	-0.5865582203096451	-0.28700732858041583	1.9926126214270892	-0.5730088578907233	-0.2744173214713959	2.0486977653077525	-0.5558462155189972	-0.3138463184160406	1.9868051860246385	-0.4878546174609282	-0.3207746621216143	1.9150405292695682	-0.45730985904808186	-0.2808754388829355	1.907596137557978	-0.46710498624067814	-0.26341440780941805	1.9966168817786234	-0.6598596826194068	-1.2995372362685338	1.8291529504742803	0.36911447761260635	-0.2633197333154786	1.899083237146309	-0.563010882985119
5	0.16666666666666666	-0.2848160776297599	1.8375395316883385	-0.5416944969967747	-0.29776846051195444	1.8328998638274032	-0.4791543443378355	-0.2955272833046523	1.6995836670105637	-0.4677834462047605	-0.30982739501570045	1.6231848867688752	-0.4760906164148492	-0.3179318790989927	1.61906448484189	-0.4849062045933865	-0.31378184120346925	1.5944462394995749	-0.4312923517238962	-0.31405608951646835	1.6192962823516717	-0.49379753601222637	-0.27142776754625375	1.8356408116958363	-0.5984703373823993	-0.25506005512243024	1.6892632147229856	-0.5366995021492852	-0.2736298065109827	1.604187911592623	-0.5799251259139067							-0.2789925859918904	1.5950579503936537	-0.5865582203096451	-0.28700561164992955	1.9925605508125852	-0.57296595410719	-0.27435387339845213	2.051218272380199	-0.5561568374055429	-0.3109473442951581	1.9867940714218308	-0.48684973162894823	-0.3205100408755484	1.9172209373830673	-0.45697583850731593	-0.28274377181589133	1.907734785703888	-0.46468470438743104	-0.26343193513060026	1.9965955870209198	-0.6597902685055946	-1.2974298238281907	1.8271449456899618	0.3665173571887434	-0.26306788148647203	1.8972896552848124	-0.5627448279303223
6	0.2	-0.2858104839849527	1.8377965517726251	-0.544840189289375	-0.29894494511861713	1.834447055244239	-0.48248291184258413	-0.2955272833046523	1.6995836670105637	-0.4677834462047605	-0.30982739501570045	1.6231848867688752	-0.4760906164148492	-0.3179318790989927	1.61906448484189	-0.4849062045933865	-0.31378184120346925	1.5944462394995749	-0.4312923517238962	-0.31405608951646835	1.6192962823516717	-0.49379753601222637	-0.27247434487898153	1.837452944222133	-0.601657667211469	-0.25506005512243024	1.6892632147229856	-0.5366995021492852	-0.2736298065109827	1.604187911592623	-0.5799251259139067							-0.2789925859918904	1.5950579503936537	-0.5865582203096451	-0.28700389471944326	1.9925084801980812	-0.5729230503236566	-0.27429042532550835	2.053738779452645	-0.5564674592920886	-0.30804837017427555	1.9867829568190232	-0.4858448457969683	-0.3202454196294825	1.9194013454965664	-0.45664181796655	-0.2846121047488472	1.907873433849798	-0.4622644225341839	-0.26344946245178247	1.9965742922632161	-0.6597208543917825	-1.2953224113878476	1.8251369409056433	0.36392023676488044	-0.2628160296574655	1.895496073423316	-0.5624787728755256
7	0.23333333333333334	-0.28680489034014545	1.8380535718569118	-0.5479858815819754	-0.30012142972527983	1.8359942466610746	-0.48581147934733276	-0.2955272833046523	1.6995836670105637	-0.4677834462047605	-0.30982739501570045	1.6231848867688752	-0.4760906164148492	-0.3179318790989927	1.61906448484189	-0.4849062045933865	-0.31378184120346925	1.5944462394995749	-0.4312923517238962	-0.31405608951646835	1.6192962823516717	-0.49379753601222637	-0.2735209222117093	1.8392650767484298	-0.6048449970405386	-0.25506005512243024	1.6892632147229856	-0.5366995021492852	-0.2736298065109827	1.604187911592623	-0.5799251259139067							-0.2789925859918904	1.5950579503936537	-0.5865582203096451	-0.287002177788957	1.9924564095835773	-0.5728801465401233	-0.27422697725256456	2.0562592865250915	-0.5567780811786344	-0.30514939605339303	1.9867718422162155	-0.48483995996498835	-0.3199807983834166	1.9215817536100654	-0.4563077974257841	-0.28648043768180304	1.908012081995708	-0.4598441406809368	-0.2634669897729647	1.9965529975055125	-0.6596514402779704	-1.2932149989475046	1.8231289361213248	0.3613231163410175	-0.2625641778284589	1.8937024915618195	-0.5622127178207289
8	0.26666666666666666	-0.28761000863077657	1.839224327213732	-0.5429454458285724	-0.29896576023071664	1.8369053197249579	-0.4827296022077344	-0.2955272833046523	1.6995836670105637	-0.4677834462047605	-0.30982739501570045	1.6231848867688752	-0.4760906164148492	-0.3179318790989927	1.61906448484189	-0.4849062045933865	-0.31378184120346925	1.5944462394995749	-0.4312923517238962	-0.31405608951646835	1.6192962823516717	-0.49379753601222637	-0.2744722547375366	1.8401104544468598	-0.5997968078533066	-0.25506005512243024	1.6892632147229856	-0.5366995021492852	-0.2736298065109827	1.604187911592623	-0.5799251259139067							-0.2789925859918904	1.5950579503936537	-0.5865582203096451	-0.28608939988296045	1.992344146013155	-0.5699226510718617	-0.2740539224907857	2.05855197545248	-0.5565603204036377	-0.30712931405712285	1.9878451778609076	-0.48313620574386085	-0.32120214977596834	1.9215662041365642	-0.45980719056537983	-0.28672821904842155	1.9069977855101818	-0.4600111700554753	-0.26342607724083406	1.996405961238296	-0.6596492764130566	-1.2953579459369486	1.8251057533505934	0.36385927012271063	-0.2636873276514421	1.895125142318052	-0.5657327750826375
9	0.3	-0.2876714760683345	1.8368107634928685	-0.5425997828214959	-0.3006642376545976	1.8340769213015626	-0.4803378875364309	-0.2955272833046523	1.6995836670105637	-0.4677834462047605	-0.30982739501570045	1.6231848867688752	-0.4760906164148492	-0.3179318790989927	1.61906448484189	-0.4849062045933865	-0.31378184120346925	1.5944462394995749	-0.4312923517238962	-0.31405608951646835	1.6192962823516717	-0.49379753601222637	-0.27240047133537265	1.836503558581669	-0.6015020560027141	-0.25506005512243024	1.6892632147229856	-0.5366995021492852	-0.2736298065109827	1.604187911592623	-0.5799251259139067							-0.2789925859918904	1.5950579503936537	-0.5865582203096451	-0.28605927410567034	1.9923351407451604	-0.569917220465056	-0.27394411811898267	2.059692706579469	-0.5565116163678516	-0.30704781944634646	1.986711443040835	-0.48277208531956384	-0.3199546321925796	1.9237240656998364	-0.4567596396826452	-0.2868454140590044	1.9040958985529526	-0.459545370193276	-0.2625356646015471	1.9963286788346726	-0.6567331698757016	-1.3017253098838795	1.825581525593004	0.37552519285244745	-0.25964126987400615	1.8933010602749651	-0.5612552735904757
